<svg width="36" height="44" viewBox="0 0 36 44" fill="none" xmlns="http://www.w3.org/2000/svg">
<path d="M11.878 35.3456C11.878 35.3456 12.6023 38.3263 12.4895 38.7448C12.3767 39.1634 10.3164 39.4959 9.11703 40.1105C8.33031 40.5142 7.06266 41.4138 7.83453 42.1411C8.25313 42.5359 9.42281 41.5384 12.9348 41.3366C16.5003 41.1317 17.1297 41.4227 16.9456 40.6686C16.7645 39.9175 15.8175 39.8314 15.0219 39.4989C14.7577 39.3891 14.4519 39.2139 14.3242 39.0239C14.2025 38.8428 14.3806 35.7642 14.3806 35.7642L11.878 35.3456V35.3456Z" fill="#FEBA02"/>
<path d="M18.4538 37.4356C18.4538 37.4356 18.5369 40.4489 18.5369 40.6419C18.5369 40.9239 17.8481 41.2623 16.8239 41.4909C15.7997 41.7195 13.772 42.0995 13.7453 43.3969C13.7275 44.1955 17.6403 43.1148 19.8758 43.1475C22.1113 43.1802 23.5452 43.4741 23.4413 42.5359C23.3581 41.7848 22.1944 41.4434 21.568 41.3069C20.9416 41.1703 20.6566 40.8645 20.6388 40.4905C20.6269 40.247 20.6803 37.5009 20.6803 37.5009L18.4538 37.4356V37.4356Z" fill="#FEBA02"/>
<path d="M12.4361 9.37796L15.1258 9.19687C15.1258 9.19687 16.622 9.68078 18.0441 11.7411C19.9322 14.4812 19.6828 19.4925 19.6828 19.4925L24.8662 33.312L25.4926 37.8809C25.4926 37.8809 20.8555 38.6112 16.3133 38.0205C10.9636 37.3228 5.44765 32.4748 5.53077 25.2311C5.6139 17.9873 11.3555 10.993 11.3555 10.993L12.4361 9.37796V9.37796Z" fill="url(#paint0_linear_9_30)"/>
<path d="M6.27891 12.0261C6.27891 12.0261 4.21563 12.6673 3.63078 14.98C3.04594 17.2926 4.02266 19.445 4.45313 19.5905C4.61938 19.6469 5.13594 18.6019 5.13594 18.6019C5.13594 18.6019 5.86031 19.439 6.2225 19.632C6.58469 19.828 6.76578 19.9734 7.08641 19.9526C7.71282 19.9111 8.63313 18.0853 8.60641 16.8592L8.92703 10.8534L6.27891 12.0261V12.0261Z" fill="#FFD51D"/>
<path d="M8.86171 15.3392C8.86171 15.3392 11.3762 14.9206 12.3797 14.0567C13.3831 13.1928 14.5528 12.412 14.9417 10.8534C15.1792 9.90343 15.1911 9.23843 15.1911 9.23843C15.1911 9.23843 11.685 7.20483 8.50843 8.87624C5.33187 10.5476 6.08296 12.8187 6.08296 12.8187L8.86171 15.3392V15.3392Z" fill="#FF2B23"/>
<path d="M8.75781 15.6747C8.75781 15.6747 6.72422 16.8741 6.50156 17.0403C6.27891 17.2066 5.55156 17.5687 5.21906 17.8478C4.69063 18.2931 4.21563 19.2966 4.41156 19.5489C4.6075 19.7983 4.88656 19.0205 5.66438 18.5455C6.44219 18.0705 7.78109 17.3194 8.14328 17.1234C8.50547 16.9275 8.61828 16.8177 8.61828 16.8177L8.75781 15.6747V15.6747Z" fill="#FF600D"/>
<path d="M9.44953 15.1522C9.58906 14.8583 9.65141 14.1844 8.70437 12.9998C7.59109 11.6075 6.02953 11.5511 6.02953 11.5511L5.86328 12.1092L7.59109 13.837L8.55 15.9062C8.55 15.9062 9.16156 15.7578 9.44953 15.1522V15.1522Z" fill="#A02A1B"/>
<path d="M4.71735 13.0563C4.71735 13.0563 5.99985 13.1394 6.89047 13.9202C7.41891 14.3833 8.2175 15.3748 8.41344 15.8231C8.60938 16.2714 9.27735 15.0305 8.74891 14.1933C8.22047 13.3561 7.58813 12.5159 6.41844 12.1092C5.57532 11.8183 4.77375 12.5278 4.71735 13.0563V13.0563Z" fill="#EC80AF"/>
<path d="M14.6923 14.701C14.6923 14.701 13.6622 12.0825 11.5425 12.1924C9.405 12.3052 9.07547 13.8935 9.17344 14.8405C9.28625 15.936 10.0106 16.5416 11.682 16.4852C13.3564 16.4258 14.6923 14.701 14.6923 14.701V14.701Z" fill="#FBD3B3"/>
<path d="M13.1338 14.3655C13.1338 15.0423 12.3975 15.648 11.7266 15.648C11.0586 15.648 10.5153 15.0987 10.5153 14.4219C10.5153 13.745 10.9042 12.9998 11.8513 12.9464C12.8517 12.8841 13.1338 13.6886 13.1338 14.3655V14.3655Z" fill="#312F2A"/>
<path d="M25.6441 30.9727C25.6441 30.9727 26.312 32.4778 28.877 34.1492C31.0531 35.5683 32.11 36.4352 33.6152 36.9636C35.1203 37.492 35.1767 37.6316 35.1203 37.9106C35.0639 38.1897 32.7245 40.0006 30.1595 39.778C27.5975 39.5553 26.3714 38.5519 25.5906 38.0234C24.8098 37.495 23.3344 33.7603 23.3344 33.7603L25.6441 30.9727V30.9727Z" fill="#01AB46"/>
<path d="M19.6947 19.4213C19.6947 19.4213 16.1411 20.4663 14.5825 22.8353C13.2763 24.8185 13.392 28.191 14.722 30.6936C16.3667 33.787 19.7659 35.9869 21.5769 36.8241C23.3878 37.6613 25.8667 38.0769 26.9533 37.967C28.0399 37.8572 25.9795 30.3611 23.9994 26.3474C22.0697 22.4316 19.6947 19.4213 19.6947 19.4213Z" fill="#B7D019"/>
<path d="M7.20428 2.18033C7.70428 0.180328 9.70425 -0.319641 10.2043 0.180344C10.3331 0.309139 10.4619 0.504292 10.5821 0.723071C11.0882 1.64372 11.1537 3.18034 12.2043 3.18034C13.2043 3.18034 13.2043 2.18034 13.2043 2.18034C13.2043 2.18034 13.2043 0.680359 14.2043 0.180344C15.2043 -0.319672 16.7043 0.180367 17.2043 2.18035L17.2043 2.18062C17.7043 4.18051 18.2043 6.18039 19.2043 7.18034C20.2043 8.18033 24.2043 7.43004 24.2043 8.18034C24.2043 8.93064 21.2043 12.1804 19.2043 12.1803H14.7043L12.7043 12.1803L10.2043 12.1803L6.20427 12.1803C4.20425 12.1803 -1.10174 8.84727 0.204283 8.18033C1.51031 7.5134 4.2043 8.18033 5.20428 7.18033C6.20426 6.18033 6.70428 4.18034 7.20428 2.18033Z" fill="url(#paint1_linear_9_30)"/>
<circle cx="12.2043" cy="8.18033" r="3.1" fill="url(#paint2_radial_9_30)" stroke="#FF600D" stroke-width="0.2"/>
<g filter="url(#filter0_d_9_30)">
<path d="M10.7805 8.67935V9.18033H10.4875V7.75845H11.0422C11.1489 7.75845 11.2427 7.77798 11.3234 7.81705C11.4048 7.85611 11.4673 7.91177 11.5109 7.98404C11.5545 8.05565 11.5764 8.13736 11.5764 8.22916C11.5764 8.36848 11.5285 8.47851 11.4328 8.55923C11.3377 8.63931 11.2059 8.67935 11.0373 8.67935H10.7805ZM10.7805 8.44205H11.0422C11.1196 8.44205 11.1786 8.42382 11.2189 8.38736C11.2599 8.3509 11.2805 8.29882 11.2805 8.23111C11.2805 8.16145 11.2599 8.10513 11.2189 8.06216C11.1779 8.0192 11.1213 7.99706 11.049 7.99576H10.7805V8.44205ZM11.7785 9.18033V7.75845H12.216C12.341 7.75845 12.4527 7.78677 12.551 7.84341C12.6499 7.8994 12.7271 7.97948 12.7824 8.08365C12.8377 8.18716 12.8654 8.305 12.8654 8.43716V8.50259C12.8654 8.63476 12.8381 8.75227 12.7834 8.85513C12.7293 8.958 12.6529 9.03775 12.5539 9.09439C12.4549 9.15103 12.3433 9.17968 12.2189 9.18033H11.7785ZM12.0715 7.99576V8.94498H12.2131C12.3277 8.94498 12.4152 8.90754 12.4758 8.83267C12.5363 8.7578 12.5672 8.65071 12.5685 8.51138V8.43619C12.5685 8.29166 12.5386 8.18228 12.4787 8.10806C12.4188 8.03319 12.3312 7.99576 12.216 7.99576H12.0715ZM13.9348 8.59927H13.3723V9.18033H13.0793V7.75845H14.0051V7.99576H13.3723V8.36295H13.9348V8.59927Z" fill="white"/>
</g>
<defs>
<filter id="filter0_d_9_30" x="6.48749" y="7.75845" width="11.5176" height="9.42188" filterUnits="userSpaceOnUse" color-interpolation-filters="sRGB">
<feFlood flood-opacity="0" result="BackgroundImageFix"/>
<feColorMatrix in="SourceAlpha" type="matrix" values="0 0 0 0 0 0 0 0 0 0 0 0 0 0 0 0 0 0 127 0" result="hardAlpha"/>
<feOffset dy="4"/>
<feGaussianBlur stdDeviation="2"/>
<feComposite in2="hardAlpha" operator="out"/>
<feColorMatrix type="matrix" values="0 0 0 0 0 0 0 0 0 0 0 0 0 0 0 0 0 0 0.25 0"/>
<feBlend mode="normal" in2="BackgroundImageFix" result="effect1_dropShadow_9_30"/>
<feBlend mode="normal" in="SourceGraphic" in2="effect1_dropShadow_9_30" result="shape"/>
</filter>
<linearGradient id="paint0_linear_9_30" x1="13.9098" y1="35.8138" x2="19.5513" y2="16.9895" gradientUnits="userSpaceOnUse">
<stop offset="0.136" stop-color="#79DA88"/>
<stop offset="0.304" stop-color="#57CD75"/>
<stop offset="0.634" stop-color="#19B553"/>
<stop offset="0.791" stop-color="#01AB46"/>
</linearGradient>
<linearGradient id="paint1_linear_9_30" x1="12.1021" y1="0" x2="12.1021" y2="12.1803" gradientUnits="userSpaceOnUse">
<stop stop-color="#B1130D"/>
<stop offset="1" stop-color="#740400"/>
</linearGradient>
<radialGradient id="paint2_radial_9_30" cx="0" cy="0" r="1" gradientUnits="userSpaceOnUse" gradientTransform="translate(12.2043 8.18033) rotate(90) scale(3)">
<stop stop-color="#FFD51D"/>
<stop offset="1" stop-color="#EBA900"/>
</radialGradient>
</defs>
</svg>
